# xmcd
#
# Track frame offsets: 
#        150
#        18400
#        31087
#        48705
#        65327
#        86802
#        102612
#        121125
#        139422
#        160395
#        179445
#        193032
#        210137
#        235435
#        255940
#
# Disc length: 3586 seconds
#
# Revision: 7
# Processed by: cddbd v1.5.2PL0 Copyright (c) Steve Scherf et al.
# Submitted via: ExactAudioCopy v1.0b2
#
DISCID=d00e000f
DTITLE=Shemekia Copeland - Talking to Strangers
DYEAR=2002
DGENRE=Blues
TTITLE0=Livin' On Love
TTITLE1=Two's A Crowd
TTITLE2=When A Woman's Had Enough
TTITLE3=Sholanda's
TTITLE4=Don't Whisper
TTITLE5=Should Have Come Home
TTITLE6=Talking To Strangers
TTITLE7=Too Much Traffic
TTITLE8=Too Close
TTITLE9=Walk On
TTITLE10=Ka-Ching
TTITLE11=The Push I Need
TTITLE12=Happy Valentine's Day
TTITLE13=When The Batle Is Over
TTITLE14=Pie In The Sky
EXTD=
EXTT0=
EXTT1=
EXTT2=
EXTT3=
EXTT4=
EXTT5=
EXTT6=
EXTT7=
EXTT8=
EXTT9=
EXTT10=
EXTT11=
EXTT12=
EXTT13=
EXTT14=
PLAYORDER=
